
<svg version="1.1" id="site-logo" xmlns="http://www.w3.org/2000/svg" xmlns:xlink="http://www.w3.org/1999/xlink" x="0px" y="0px" viewBox="0 0 1080 1080"
	 style="enable-background:new 0 0 1080 1080;" xml:space="preserve">
	<g>
		<g>
			<g>
				<path class="st0" d="M273.34,232v102.56h-79.55V126.88h79.55v72.84h4.15c0.21-9.79,1.28-18.9,3.19-27.32
					c1.92-8.41,4.84-16.29,8.79-23.64c3.94-7.35,9.58-13.04,16.93-17.09c7.35-4.04,15.92-5.96,25.72-5.75
					c11.29,0.21,20.77,2.4,28.43,6.55c7.67,4.15,13.36,10.06,17.09,17.73c3.72,7.67,6.33,15.66,7.83,23.96
					c1.49,8.31,2.24,18.11,2.24,29.39v130.99h-77.96V232.63c0-5.75-1.23-10.54-3.67-14.38c-2.45-3.83-5.49-6.23-9.11-7.19
					c-3.62-0.96-7.24-1.01-10.86-0.16c-3.62,0.85-6.66,3.2-9.11,7.03C274.56,221.77,273.34,226.46,273.34,232z"/>
				<path class="st0" d="M507.84,122.09c29.82,0,55.32,10.6,76.52,31.79c21.19,21.2,31.79,46.7,31.79,76.52
					c0,29.82-10.6,55.38-31.79,76.68c-21.2,21.3-46.7,31.95-76.52,31.95c-30.03,0-55.65-10.65-76.84-31.95
					c-21.2-21.3-31.79-46.86-31.79-76.68c0-29.82,10.59-55.32,31.79-76.52C452.19,132.69,477.81,122.09,507.84,122.09z
					 M502.41,212.83c-7.88,0-14.06,3.2-18.53,9.58v-88.18c-9.8,2.98-18.05,8.26-24.76,15.81c-6.71,7.56-11.34,15.92-13.9,25.08
					c-2.56,9.16-3.3,18.75-2.24,28.75c1.06,10.01,3.88,19.12,8.47,27.32c4.58,8.2,11.29,14.97,20.13,20.29
					c8.84,5.33,19.11,7.99,30.83,7.99c6.39,0,11.87-2.24,16.45-6.71c4.58-4.47,6.87-10.01,6.87-16.61c0-6.39-2.29-11.87-6.87-16.45
					C514.28,215.12,508.8,212.83,502.41,212.83z"/>
				<path class="st0" d="M669.5,216.98c12.78-0.64,23.48-4.79,32.11-12.46s13.79-16.13,15.5-25.4c1.7-9.27-0.53-18.21-6.71-26.84
					c-6.18-8.63-16.19-14-30.03-16.13l-1.28,3.51c12.35,7.03,18.63,17.36,18.85,30.99c0.42,28.75-22.04,42.92-67.41,42.49
					c-1.49,0-2.45,0-2.88,0v-86.26h157.19v85.94H748.1l0.32,121.73h-78.6L669.5,216.98z"/>
			</g>
			<g>
				<path class="st0" d="M447.77,708.87h108.31l0.32,84.99c-0.85,0.21-2.13,0.37-3.83,0.48c-1.71,0.11-4.9,0.16-9.58,0.16
					c-4.69,0-9.22-0.32-13.58-0.96c-4.37-0.64-9.22-1.86-14.54-3.67c-5.33-1.81-9.9-4.2-13.74-7.19c-3.83-2.98-7.08-7.13-9.74-12.46
					c-2.67-5.32-3.99-11.5-3.99-18.53c-0.21-8.31,1.38-14.91,4.79-19.81c3.4-4.9,8.31-9.05,14.7-12.46l-0.64-3.51
					c-13.21-0.64-24.66,1.76-34.35,7.19c-9.69,5.43-14.65,14.22-14.86,26.36c-0.21,5.75,0.9,11.13,3.35,16.13
					c2.45,5.01,6.49,9.75,12.14,14.22c5.64,4.47,10.27,7.88,13.9,10.22c3.62,2.35,9.43,5.59,17.41,9.75
					c7.99,4.15,12.73,6.66,14.22,7.51c30.03,16.61,42.92,37.6,38.66,62.94c-2.13,13.21-7.83,24.23-17.09,33.07
					c-9.27,8.84-22.63,13.26-40.1,13.26H379.72l-0.32-90.1c1.06-0.21,2.45-0.37,4.15-0.48c1.7-0.1,5.06-0.16,10.06-0.16
					c5,0,9.79,0.32,14.38,0.96c4.58,0.64,9.63,1.97,15.18,3.99c5.54,2.03,10.33,4.58,14.38,7.67c4.04,3.09,7.51,7.46,10.38,13.1
					c2.88,5.65,4.31,12.2,4.31,19.65c0.21,15.55-6.07,26.84-18.85,33.87l0.96,3.51c14.06-0.42,24.97-3.04,32.75-7.83
					c7.77-4.79,11.87-13.68,12.3-26.68c-0.64-10.01-3.73-18.8-9.27-26.36c-5.54-7.56-12.25-13.47-20.13-17.73
					c-7.88-4.26-16.35-8.79-25.4-13.58c-9.06-4.79-17.36-9.43-24.92-13.9c-7.56-4.47-13.74-10.59-18.53-18.37
					c-4.79-7.77-6.98-16.88-6.55-27.32c0.42-8.31,2.18-15.5,5.27-21.57c3.09-6.07,6.87-10.75,11.34-14.06
					c4.47-3.3,10.11-5.91,16.93-7.83c6.81-1.92,13.15-3.14,19.01-3.67C433.02,709.13,439.89,708.87,447.77,708.87z"/>
				<path class="st0" d="M571.42,916.54V708.87h83.39v207.67H571.42z"/>
				<path class="st0" d="M752.89,814.3v102.56h-79.55V709.18h79.55v72.84h4.15c0.21-9.79,1.28-18.9,3.2-27.32
					c1.92-8.41,4.84-16.29,8.79-23.64c3.94-7.35,9.59-13.04,16.93-17.09c7.35-4.04,15.92-5.96,25.72-5.75
					c11.29,0.21,20.77,2.4,28.43,6.55c7.67,4.15,13.36,10.06,17.09,17.73c3.72,7.67,6.33,15.66,7.83,23.96
					c1.49,8.31,2.24,18.11,2.24,29.39v130.99h-77.96V814.94c0-5.75-1.23-10.54-3.67-14.38c-2.45-3.83-5.49-6.23-9.11-7.19
					c-3.62-0.96-7.24-1.01-10.86-0.16c-3.62,0.85-6.66,3.2-9.11,7.03C754.11,804.07,752.89,808.76,752.89,814.3z"/>
			</g>
			<g>
				<path class="st0" d="M187.44,535.77c-17.47,0.43-32.96-3.94-46.49-13.1c-13.53-9.16-20.29-22.36-20.29-39.62v-63.26h76.68
					l0.32,74.12c-5.11-0.21-9.48,1.39-13.1,4.79c-3.62,3.41-5.33,7.56-5.11,12.46c0.21,7.46,3.4,12.46,9.58,15.02
					c6.18,2.56,12.46,2.45,18.85-0.32c10.65-3.62,18.58-9.05,23.8-16.29c5.22-7.24,7.83-17.25,7.83-30.03v-59.75h77.96v63.26
					c0,8.74-2.03,16.4-6.07,23c-4.05,6.6-8.95,11.98-14.7,16.13c-5.75,4.15-11.5,8.26-17.25,12.3c-5.75,4.05-10.65,9.11-14.7,15.18
					c-4.05,6.07-6.07,13.15-6.07,21.25v56.55h-79.87v-69.65C178.82,548.87,181.69,541.52,187.44,535.77z"/>
				<path class="st0" d="M431.22,415c29.82,0,55.32,10.6,76.52,31.79c21.19,21.2,31.79,46.7,31.79,76.52
					c0,29.82-10.6,55.38-31.79,76.68c-21.2,21.3-46.7,31.95-76.52,31.95c-30.03,0-55.65-10.65-76.84-31.95
					c-21.2-21.3-31.79-46.86-31.79-76.68c0-29.82,10.59-55.32,31.79-76.52C375.57,425.59,401.18,415,431.22,415z M425.78,505.73
					c-7.88,0-14.06,3.2-18.53,9.58v-88.18c-9.8,2.98-18.05,8.26-24.76,15.81c-6.71,7.56-11.34,15.92-13.9,25.08
					c-2.56,9.16-3.3,18.75-2.24,28.75c1.06,10.01,3.88,19.12,8.47,27.32c4.58,8.2,11.29,14.97,20.13,20.29
					c8.84,5.33,19.11,7.99,30.83,7.99c6.39,0,11.87-2.24,16.45-6.71c4.58-4.47,6.87-10.01,6.87-16.61c0-6.39-2.29-11.87-6.87-16.45
					C437.66,508.02,432.17,505.73,425.78,505.73z"/>
				<path class="st0" d="M667,522.35V419.79h79.55v207.67H667v-72.53h-4.15c-0.21,9.8-1.28,18.85-3.2,27.16
					c-1.92,8.31-4.9,16.13-8.95,23.48c-4.05,7.35-9.7,13.1-16.93,17.25c-7.24,4.15-15.87,6.12-25.88,5.91
					c-11.29-0.21-20.72-2.45-28.28-6.71c-7.56-4.26-13.26-10.22-17.09-17.89c-3.83-7.67-6.5-15.71-7.99-24.12
					c-1.49-8.41-2.24-18.16-2.24-29.23V419.79h78.28v102.24c0,5.75,1.22,10.54,3.67,14.38c2.45,3.83,5.48,6.23,9.11,7.19
					c3.62,0.96,7.24,1.01,10.86,0.16c3.62-0.85,6.66-3.19,9.11-7.03C665.77,532.89,667,528.1,667,522.35z"/>
				<path class="st0" d="M765.4,627.14V419.47h143.45c16.82,0,30.14,4.95,39.94,14.86c9.79,9.9,15.02,21.68,15.66,35.3
					c0.42,12.36-2.03,23.11-7.35,32.27c-5.33,9.16-12.25,15.81-20.77,19.97c-8.52,4.15-18.11,7.03-28.75,8.63
					c-10.65,1.6-20.98,0.91-30.99-2.08l-1.6,3.2c7.24,5.97,16.13,9.75,26.68,11.34c10.54,1.6,20.71,1.44,30.51-0.48
					c9.79-1.92,18.85-4.9,27.16-8.95v89.46c-9.58,4.05-19.38,6.23-29.39,6.55c-10.01,0.32-19.17-1.12-27.48-4.31
					c-8.31-3.2-15.02-9.05-20.13-17.57c-5.11-8.52-7.46-19.06-7.03-31.63c0.21-5.54-0.16-10.97-1.12-16.29
					c-0.96-5.32-2.51-10.49-4.63-15.5c-2.13-5-5.43-9.05-9.9-12.14c-4.47-3.08-9.7-4.63-15.66-4.63v99.68H765.4z M824.83,445.99
					c0,5.33,1.86,9.85,5.59,13.58c3.72,3.73,8.25,5.59,13.58,5.59v53.68c11.07-0.85,19.91-5.75,26.52-14.7
					c6.6-8.95,10.11-18.74,10.54-29.39c0.42-10.65-2.19-20.71-7.83-30.19c-5.65-9.48-13.9-15.18-24.76-17.09
					c-5.97-1.06-11.4,0.21-16.29,3.83C827.28,434.92,824.83,439.81,824.83,445.99z"/>
			</g>
		</g>
	</g>
</svg>
