<svg width="944" height="672" viewBox="0 0 944 672" fill="none" xmlns="http://www.w3.org/2000/svg">
<g id="title">
<g id="welcome">
<path id="welcome_2" d="M259.574 275.04L259.478 213.6C259.606 213.6 259.862 213.6 260.246 213.6C274.07 213.472 280.918 217.664 280.79 226.176C280.726 228.928 280.054 231.232 278.774 233.088C277.558 234.88 275.958 236.16 273.974 236.928C271.99 237.696 270.166 238.208 268.502 238.464C266.902 238.656 265.27 238.72 263.606 238.656C263.286 241.92 263.766 245.152 265.046 248.352C266.326 251.488 268.406 253.44 271.286 254.208C274.486 255.04 277.366 254.976 279.926 254.016C282.486 252.992 284.47 251.392 285.878 249.216C287.35 247.04 288.534 244.576 289.43 241.824C290.39 239.008 290.838 236.192 290.774 233.376C290.774 230.56 290.614 228 290.294 225.696C289.142 220.64 286.966 216.608 283.766 213.6H305.558C309.398 219.616 311.766 226.048 312.662 232.896C313.622 239.68 313.11 245.888 311.126 251.52C315.286 250.88 318.614 249.056 321.11 246.048C323.606 243.04 325.078 239.616 325.526 235.776C326.038 231.872 325.814 227.904 324.854 223.872C323.958 219.84 322.454 216.416 320.342 213.6H340.406C343.222 218.144 345.27 223.008 346.55 228.192C347.894 233.312 348.438 238.304 348.182 243.168C347.99 248.032 346.934 252.672 345.014 257.088C343.158 261.44 340.63 265.152 337.43 268.224C334.23 271.296 330.102 273.568 325.046 275.04C319.99 276.512 314.39 276.832 308.246 276L309.974 257.088L308.918 256.704C303.862 264.768 296.694 270.496 287.414 273.888C278.198 277.216 268.918 277.6 259.574 275.04ZM402.825 213.504L402.729 240.576C402.409 240.64 401.993 240.704 401.481 240.768C400.969 240.768 399.977 240.768 398.505 240.768C397.033 240.768 395.625 240.672 394.281 240.48C393.001 240.288 391.529 239.904 389.865 239.328C388.201 238.688 386.761 237.92 385.545 237.024C384.393 236.064 383.401 234.752 382.569 233.088C381.737 231.36 381.321 229.376 381.321 227.136C381.257 222.72 382.857 219.36 386.121 217.056L385.641 216C382.569 216.512 380.041 217.888 378.057 220.128C376.137 222.304 375.113 224.832 374.985 227.712C374.729 231.616 375.977 235.2 378.729 238.464C381.545 241.664 385.289 243.328 389.961 243.456V245.376C385.737 245.504 382.153 246.688 379.209 248.928C376.265 251.104 374.761 254.112 374.697 257.952C374.633 261.472 375.625 264.736 377.673 267.744C379.721 270.752 382.409 272.64 385.737 273.408L386.217 272.352C382.953 270.048 381.321 266.688 381.321 262.272C381.321 260.096 381.641 258.176 382.281 256.512C382.985 254.848 384.009 253.536 385.353 252.576C386.761 251.616 388.073 250.848 389.289 250.272C390.569 249.696 392.169 249.312 394.089 249.12C396.073 248.864 397.481 248.736 398.313 248.736C399.209 248.672 400.425 248.64 401.961 248.64C402.345 248.64 402.633 248.64 402.825 248.64L402.729 275.904H367.785C363.625 275.904 360.105 275.008 357.225 273.216C354.345 271.36 352.457 269.088 351.561 266.4C350.665 263.648 350.377 260.8 350.697 257.856C351.081 254.912 352.361 252.192 354.537 249.696C356.777 247.2 359.625 245.44 363.081 244.416C359.753 243.392 357.065 241.664 355.017 239.232C352.969 236.736 351.849 234.08 351.657 231.264C351.465 228.384 351.849 225.6 352.809 222.912C353.769 220.224 355.593 217.984 358.281 216.192C360.969 214.4 364.137 213.504 367.785 213.504H402.825ZM431.429 249.504C427.525 249.824 424.421 251.072 422.117 253.248C419.877 255.424 418.789 258.432 418.853 262.272C418.853 269.056 422.597 272.96 430.085 273.984L430.469 272.928C426.629 270.816 424.677 267.392 424.613 262.656C424.485 253.952 431.301 249.664 445.061 249.792C445.445 249.792 445.733 249.792 445.925 249.792V275.904H407.141V213.504H431.429V249.504ZM449.295 245.28C449.295 239.328 450.127 234.272 451.791 230.112C453.455 225.888 455.919 222.624 459.183 220.32C462.511 217.952 466.287 216.256 470.511 215.232C474.735 214.208 479.695 213.696 485.391 213.696H504.207V241.536C503.631 241.6 502.831 241.664 501.807 241.728C500.783 241.792 498.991 241.728 496.431 241.536C493.871 241.28 491.599 240.768 489.615 240C487.631 239.232 485.807 237.856 484.143 235.872C482.543 233.824 481.711 231.264 481.647 228.192C481.583 223.648 483.247 220.224 486.639 217.92L486.159 216.864C483.663 217.504 481.551 218.912 479.823 221.088C478.095 223.264 476.815 225.888 475.983 228.96C475.215 232.032 474.671 234.88 474.351 237.504C474.095 240.128 473.967 242.816 473.967 245.568C473.967 253.376 475.151 260.224 477.519 266.112C479.951 272 483.247 275.072 487.407 275.328V276.576C475.887 277.28 466.671 275.104 459.759 270.048C452.847 264.928 449.359 256.672 449.295 245.28ZM504.303 275.904V248.352C497.903 248.352 493.167 248.896 490.095 249.984C484.143 252.16 481.231 256.256 481.359 262.272C481.423 265.344 482.223 267.936 483.759 270.048C485.359 272.096 487.279 273.504 489.519 274.272C491.759 274.976 493.999 275.488 496.239 275.808C498.479 276.128 500.399 276.224 501.999 276.096L504.303 275.904ZM540.138 212.16C549.098 212.16 556.746 215.36 563.082 221.76C569.482 228.096 572.682 235.744 572.682 244.704C572.682 253.664 569.482 261.344 563.082 267.744C556.746 274.144 549.098 277.344 540.138 277.344C531.114 277.344 523.402 274.144 517.002 267.744C510.666 261.344 507.498 253.664 507.498 244.704C507.498 235.744 510.666 228.096 517.002 221.76C523.402 215.36 531.114 212.16 540.138 212.16ZM538.506 239.424C536.138 239.424 534.282 240.384 532.938 242.304V215.808C529.994 216.704 527.498 218.304 525.45 220.608C523.466 222.848 522.09 225.344 521.322 228.096C520.554 230.848 520.33 233.728 520.65 236.736C520.97 239.744 521.802 242.496 523.146 244.992C524.554 247.424 526.57 249.44 529.194 251.04C531.882 252.64 534.986 253.44 538.506 253.44C540.426 253.44 542.058 252.768 543.402 251.424C544.81 250.08 545.514 248.416 545.514 246.432C545.514 244.512 544.81 242.88 543.402 241.536C542.058 240.128 540.426 239.424 538.506 239.424ZM600.259 245.088V275.904H576.355V213.504H600.259V235.296H601.507C601.635 228.896 602.979 223.584 605.539 219.36C608.099 215.136 612.227 213.056 617.923 213.12C621.251 213.184 624.035 213.888 626.275 215.232C628.579 216.512 630.275 218.304 631.363 220.608C632.515 222.912 633.315 225.184 633.763 227.424C634.211 229.664 634.499 232.288 634.627 235.296H635.587C635.651 232.352 635.971 229.632 636.547 227.136C637.123 224.64 638.019 222.304 639.235 220.128C640.451 217.888 642.147 216.16 644.323 214.944C646.499 213.664 649.091 213.056 652.099 213.12C654.339 213.184 656.323 213.536 658.051 214.176C659.779 214.816 661.219 215.616 662.371 216.576C663.523 217.472 664.515 218.688 665.347 220.224C666.179 221.76 666.787 223.232 667.171 224.64C667.619 225.984 667.971 227.68 668.227 229.728C668.483 231.712 668.611 233.408 668.611 234.816C668.675 236.16 668.707 237.824 668.707 239.808V275.904H645.283V244.32C645.283 241.76 644.387 240 642.595 239.04C640.803 238.016 639.011 238.048 637.219 239.136C635.491 240.16 634.627 241.888 634.627 244.32V275.904H611.203V245.184C611.203 242.368 610.275 240.384 608.419 239.232C606.627 238.08 604.803 238.08 602.947 239.232C601.155 240.384 600.259 242.336 600.259 245.088ZM726.45 213.504L726.354 240.576C726.034 240.64 725.618 240.704 725.106 240.768C724.594 240.768 723.602 240.768 722.13 240.768C720.658 240.768 719.25 240.672 717.906 240.48C716.626 240.288 715.154 239.904 713.49 239.328C711.826 238.688 710.386 237.92 709.17 237.024C708.018 236.064 707.026 234.752 706.194 233.088C705.362 231.36 704.946 229.376 704.946 227.136C704.882 222.72 706.482 219.36 709.746 217.056L709.266 216C706.194 216.512 703.666 217.888 701.682 220.128C699.762 222.304 698.738 224.832 698.61 227.712C698.354 231.616 699.602 235.2 702.354 238.464C705.17 241.664 708.914 243.328 713.586 243.456V245.376C709.362 245.504 705.778 246.688 702.834 248.928C699.89 251.104 698.386 254.112 698.322 257.952C698.258 261.472 699.25 264.736 701.298 267.744C703.346 270.752 706.034 272.64 709.362 273.408L709.842 272.352C706.578 270.048 704.946 266.688 704.946 262.272C704.946 260.096 705.266 258.176 705.906 256.512C706.61 254.848 707.634 253.536 708.978 252.576C710.386 251.616 711.698 250.848 712.914 250.272C714.194 249.696 715.794 249.312 717.714 249.12C719.698 248.864 721.106 248.736 721.938 248.736C722.834 248.672 724.05 248.64 725.586 248.64C725.97 248.64 726.258 248.64 726.45 248.64L726.354 275.904H691.41C687.25 275.904 683.73 275.008 680.85 273.216C677.97 271.36 676.082 269.088 675.186 266.4C674.29 263.648 674.002 260.8 674.322 257.856C674.706 254.912 675.986 252.192 678.162 249.696C680.402 247.2 683.25 245.44 686.706 244.416C683.378 243.392 680.69 241.664 678.642 239.232C676.594 236.736 675.474 234.08 675.282 231.264C675.09 228.384 675.474 225.6 676.434 222.912C677.394 220.224 679.218 217.984 681.906 216.192C684.594 214.4 687.762 213.504 691.41 213.504H726.45Z" fill="black"/>
<path id="to my" d="M245.064 347.374C248.904 347.182 252.104 345.934 254.664 343.63C257.288 341.326 258.856 338.798 259.368 336.046C259.88 333.23 259.208 330.542 257.352 327.982C255.496 325.358 252.488 323.726 248.328 323.086L247.944 324.142C251.656 326.254 253.544 329.358 253.608 333.454C253.736 342.094 246.984 346.35 233.352 346.222C232.904 346.222 232.616 346.222 232.488 346.222V320.302H279.72V346.126H268.68L268.776 382.702H245.16L245.064 347.374ZM314.681 318.862C323.641 318.862 331.289 322.062 337.625 328.462C344.025 334.798 347.225 342.446 347.225 351.406C347.225 360.366 344.025 368.046 337.625 374.446C331.289 380.846 323.641 384.046 314.681 384.046C305.657 384.046 297.945 380.846 291.545 374.446C285.209 368.046 282.041 360.366 282.041 351.406C282.041 342.446 285.209 334.798 291.545 328.462C297.945 322.062 305.657 318.862 314.681 318.862ZM313.049 346.126C310.681 346.126 308.825 347.086 307.481 349.006V322.51C304.537 323.406 302.041 325.006 299.993 327.31C298.009 329.55 296.633 332.046 295.865 334.798C295.097 337.55 294.873 340.43 295.193 343.438C295.513 346.446 296.345 349.198 297.689 351.694C299.097 354.126 301.113 356.142 303.737 357.742C306.425 359.342 309.529 360.142 313.049 360.142C314.969 360.142 316.601 359.47 317.945 358.126C319.353 356.782 320.057 355.118 320.057 353.134C320.057 351.214 319.353 349.582 317.945 348.238C316.601 346.83 314.969 346.126 313.049 346.126ZM400.678 351.79V382.606H376.774V320.206H400.678V341.998H401.926C402.054 335.598 403.398 330.286 405.958 326.062C408.518 321.838 412.646 319.758 418.342 319.822C421.67 319.886 424.454 320.59 426.694 321.934C428.998 323.214 430.694 325.006 431.782 327.31C432.934 329.614 433.734 331.886 434.182 334.126C434.63 336.366 434.918 338.99 435.046 341.998H436.006C436.07 339.054 436.39 336.334 436.966 333.838C437.542 331.342 438.438 329.006 439.654 326.83C440.87 324.59 442.566 322.862 444.742 321.646C446.918 320.366 449.51 319.758 452.518 319.822C454.758 319.886 456.742 320.238 458.47 320.878C460.198 321.518 461.638 322.318 462.79 323.278C463.942 324.174 464.934 325.39 465.766 326.926C466.598 328.462 467.206 329.934 467.59 331.342C468.038 332.686 468.39 334.382 468.646 336.43C468.902 338.414 469.03 340.11 469.03 341.518C469.094 342.862 469.126 344.526 469.126 346.51V382.606H445.702V351.022C445.702 348.462 444.806 346.702 443.014 345.742C441.222 344.718 439.43 344.75 437.638 345.838C435.91 346.862 435.046 348.59 435.046 351.022V382.606H411.622V351.886C411.622 349.07 410.694 347.086 408.838 345.934C407.046 344.782 405.222 344.782 403.366 345.934C401.574 347.086 400.678 349.038 400.678 351.79ZM494.516 355.15C489.268 355.278 484.596 353.966 480.5 351.214C476.468 348.462 474.452 344.494 474.452 339.31V320.302H497.492L497.588 342.574C496.052 342.51 494.74 342.99 493.652 344.014C492.564 345.038 492.052 346.286 492.116 347.758C492.18 349.998 493.14 351.502 494.996 352.27C496.852 353.038 498.74 353.006 500.66 352.174C503.86 351.086 506.228 349.454 507.764 347.278C509.364 345.102 510.164 342.094 510.164 338.254V320.302H533.588V339.31C533.588 341.934 532.98 344.238 531.764 346.222C530.548 348.206 529.076 349.838 527.348 351.118C525.62 352.334 523.892 353.55 522.164 354.766C520.436 355.982 518.964 357.518 517.748 359.374C516.532 361.166 515.924 363.278 515.924 365.71V382.702H491.924V361.774C491.924 359.086 492.788 356.878 494.516 355.15Z" fill="black"/>
<path id="wowrld" d="M351.868 488.742L351.772 427.302C351.9 427.302 352.156 427.302 352.54 427.302C366.364 427.174 373.212 431.366 373.084 439.878C373.02 442.63 372.348 444.934 371.068 446.79C369.852 448.582 368.252 449.862 366.268 450.63C364.284 451.398 362.46 451.91 360.796 452.166C359.196 452.358 357.564 452.422 355.9 452.358C355.58 455.622 356.06 458.854 357.34 462.054C358.62 465.19 360.7 467.142 363.58 467.91C366.78 468.742 369.66 468.678 372.22 467.718C374.78 466.694 376.764 465.094 378.172 462.918C379.644 460.742 380.828 458.278 381.724 455.526C382.684 452.71 383.132 449.894 383.068 447.078C383.068 444.262 382.908 441.702 382.588 439.398C381.436 434.342 379.26 430.31 376.06 427.302H397.852C401.692 433.318 404.06 439.75 404.956 446.598C405.916 453.382 405.404 459.59 403.42 465.222C407.58 464.582 410.908 462.758 413.404 459.75C415.9 456.742 417.372 453.318 417.82 449.478C418.332 445.574 418.108 441.606 417.148 437.574C416.252 433.542 414.748 430.118 412.636 427.302H432.7C435.516 431.846 437.564 436.71 438.844 441.894C440.188 447.014 440.732 452.006 440.476 456.87C440.284 461.734 439.228 466.374 437.308 470.79C435.452 475.142 432.924 478.854 429.724 481.926C426.524 484.998 422.396 487.27 417.34 488.742C412.284 490.214 406.684 490.534 400.54 489.702L402.268 470.79L401.212 470.406C396.156 478.47 388.988 484.198 379.708 487.59C370.492 490.918 361.212 491.302 351.868 488.742ZM475.306 425.862C484.266 425.862 491.914 429.062 498.25 435.462C504.65 441.798 507.85 449.446 507.85 458.406C507.85 467.366 504.65 475.046 498.25 481.446C491.914 487.846 484.266 491.046 475.306 491.046C466.282 491.046 458.57 487.846 452.17 481.446C445.834 475.046 442.666 467.366 442.666 458.406C442.666 449.446 445.834 441.798 452.17 435.462C458.57 429.062 466.282 425.862 475.306 425.862ZM473.674 453.126C471.306 453.126 469.45 454.086 468.106 456.006V429.51C465.162 430.406 462.666 432.006 460.618 434.31C458.634 436.55 457.258 439.046 456.49 441.798C455.722 444.55 455.498 447.43 455.818 450.438C456.138 453.446 456.97 456.198 458.314 458.694C459.722 461.126 461.738 463.142 464.362 464.742C467.05 466.342 470.154 467.142 473.674 467.142C475.594 467.142 477.226 466.47 478.57 465.126C479.978 463.782 480.682 462.118 480.682 460.134C480.682 458.214 479.978 456.582 478.57 455.238C477.226 453.83 475.594 453.126 473.674 453.126ZM511.524 488.742L511.428 427.302C511.556 427.302 511.812 427.302 512.196 427.302C526.02 427.174 532.868 431.366 532.74 439.878C532.676 442.63 532.004 444.934 530.724 446.79C529.508 448.582 527.908 449.862 525.924 450.63C523.94 451.398 522.116 451.91 520.452 452.166C518.852 452.358 517.22 452.422 515.556 452.358C515.236 455.622 515.716 458.854 516.996 462.054C518.276 465.19 520.356 467.142 523.236 467.91C526.436 468.742 529.316 468.678 531.876 467.718C534.436 466.694 536.42 465.094 537.828 462.918C539.3 460.742 540.484 458.278 541.38 455.526C542.34 452.71 542.788 449.894 542.724 447.078C542.724 444.262 542.564 441.702 542.244 439.398C541.092 434.342 538.916 430.31 535.716 427.302H557.508C561.348 433.318 563.716 439.75 564.612 446.598C565.572 453.382 565.06 459.59 563.076 465.222C567.236 464.582 570.564 462.758 573.06 459.75C575.556 456.742 577.028 453.318 577.476 449.478C577.988 445.574 577.764 441.606 576.804 437.574C575.908 433.542 574.404 430.118 572.292 427.302H592.356C595.172 431.846 597.22 436.71 598.5 441.894C599.844 447.014 600.388 452.006 600.132 456.87C599.94 461.734 598.884 466.374 596.964 470.79C595.108 475.142 592.58 478.854 589.38 481.926C586.18 484.998 582.052 487.27 576.996 488.742C571.94 490.214 566.34 490.534 560.196 489.702L561.924 470.79L560.868 470.406C555.812 478.47 548.644 484.198 539.364 487.59C530.148 490.918 520.868 491.302 511.524 488.742ZM604.339 489.606V427.206H647.443C652.499 427.206 656.499 428.71 659.443 431.718C662.387 434.662 663.955 438.182 664.147 442.278C664.275 445.99 663.539 449.222 661.939 451.974C660.339 454.726 658.259 456.742 655.699 458.022C653.139 459.238 650.259 460.102 647.059 460.614C643.859 461.062 640.755 460.838 637.747 459.942L637.267 460.902C639.443 462.694 642.099 463.846 645.235 464.358C648.435 464.806 651.507 464.742 654.451 464.166C657.395 463.59 660.115 462.694 662.611 461.478V488.358C659.731 489.574 656.787 490.214 653.779 490.278C650.771 490.406 648.019 489.99 645.523 489.03C643.027 488.07 641.011 486.31 639.475 483.75C637.939 481.19 637.235 478.022 637.363 474.246C637.427 472.582 637.299 470.95 636.979 469.35C636.723 467.75 636.275 466.214 635.635 464.742C634.995 463.206 634.003 461.99 632.659 461.094C631.315 460.134 629.747 459.654 627.955 459.654V489.606H604.339ZM622.195 435.174C622.195 436.774 622.739 438.15 623.827 439.302C624.979 440.39 626.355 440.934 627.955 440.934V457.062C631.283 456.806 633.939 455.334 635.923 452.646C637.907 449.958 638.963 447.014 639.091 443.814C639.219 440.614 638.419 437.606 636.691 434.79C635.027 431.91 632.563 430.182 629.299 429.606C627.507 429.286 625.875 429.67 624.403 430.758C622.931 431.846 622.195 433.318 622.195 435.174ZM692.098 463.206C688.194 463.526 685.09 464.774 682.786 466.95C680.546 469.126 679.458 472.134 679.522 475.974C679.522 482.758 683.266 486.662 690.754 487.686L691.138 486.63C687.298 484.518 685.346 481.094 685.282 476.358C685.154 467.654 691.97 463.366 705.73 463.494C706.114 463.494 706.402 463.494 706.594 463.494V489.606H667.81V427.206H692.098V463.206ZM711.403 489.798V427.398H746.635C751.819 427.398 756.299 428.934 760.075 432.006C763.915 435.078 766.699 438.95 768.427 443.622C770.155 448.23 771.019 453.222 771.019 458.598C771.019 463.974 770.155 468.998 768.427 473.67C766.763 478.278 764.011 482.118 760.171 485.19C756.331 488.262 751.819 489.798 746.635 489.798H736.939V472.23H735.499C734.347 477.862 733.099 481.766 731.755 483.942C729.387 487.846 725.675 489.798 720.619 489.798H711.403ZM735.115 430.182L735.019 464.838C738.219 464.838 740.939 463.686 743.179 461.382C745.419 459.078 746.795 456.262 747.307 452.934C747.883 449.606 747.915 446.278 747.403 442.95C746.955 439.558 745.611 436.646 743.371 434.214C741.195 431.718 738.443 430.374 735.115 430.182Z" fill="white"/>
</g>
</g>
</svg>
