
<svg version="1.1" class="site-logo-final" xmlns="http://www.w3.org/2000/svg" xmlns:xlink="http://www.w3.org/1999/xlink" x="0px" y="0px" viewBox="0 0 1080 1080"
	 style="enable-background:new 0 0 1080 1080;" xml:space="preserve">
<style type="text/css">
	.st0{fill:#FF6700;}
	.st1{fill:#FFFFFF;}
</style>
	<g>
		<g>
			<g id="logo-svg-bubble">
				<path class="st0" d="M1004.33,571.65c-12.84,49.44-51.11,121.04-90.61,192.12c-16.93,30.47-34.84,60.43-56.19,87.95
					c-57.3,73.84-102.08,87.52-182.89,70.02c-46.01-9.97-91.83-20.56-138.8-25.22c-69.44-6.88-137.77,4.1-206.19,12.85
					c-43.71,5.59-87.45,9.21-131.53,8.57c-25.95-0.38-51.5-4.04-74.8-15.56c-50.18-24.8-65.41-70.98-67.53-121.69
					c-4.98-119.44,49.7-208.58,145.91-274.72c28.7-19.73,57.98-38.72,88.98-54.79c81.04-42.02,150.36-100.19,219.55-158.6
					c75.86-64.05,160.57-111.11,257.83-134.11c106.62-25.21,188.13,18.09,228.11,120.68
					C1029.65,365.04,1034.86,452.43,1004.33,571.65z"/>
			</g>
			<g id="logo-svg-text">
				<g>
					<g>
						<path class="st1" d="M408.19,370.22c0,28.34,0,55.68,0,82.02c-17.64-1.3-35.28-4.71-52.92-10.87c0-51.09,0-105.02,0-161.79
							c17.64,0.19,35.28,0.29,52.92,0.33c0,21.58,0,42.67,0,63.24c0.92,0.03,1.84,0.06,2.76,0.08c0.14-8.3,0.85-16.09,2.13-23.35
							c1.28-7.25,3.22-14.11,5.84-20.57c2.62-6.45,6.37-11.51,11.26-15.12c4.89-3.6,10.59-5.32,17.11-5.15
							c7.51,0.17,13.81,2.09,18.91,5.65c5.1,3.56,8.89,8.59,11.37,15.02c2.48,6.43,4.21,13.06,5.21,19.9
							c0.99,6.85,1.49,14.9,1.49,24.11c0,35.65,0,69.92,0,102.83c-17.29,3.42-34.57,5.67-51.86,6.17c0-26.23,0-53.46,0-81.69
							c0-4.78-0.82-8.78-2.44-11.98c-1.63-3.2-3.65-5.21-6.06-6.03c-2.41-0.81-4.82-0.88-7.23-0.21c-2.41,0.68-4.43,2.6-6.06,5.75
							C409,361.75,408.19,365.62,408.19,370.22z"/>
						<path class="st1" d="M564.18,275.66c19.83,0.06,36.8,7.37,50.9,19.36c14.1,12.08,21.15,25.59,21.15,43.22
							c0,17.62-7.05,34.48-21.15,52.14c-14.1,17.62-31.07,30.74-50.9,37.31c-19.98,6.61-37.02,4.42-51.11-8.08
							c-14.1-12.48-21.15-31.34-21.15-55.07c0-23.74,7.05-45.54,21.15-63.24C527.17,283.52,544.2,275.57,564.18,275.66z
							 M560.57,340.55c-5.25,0.87-9.35,3.83-12.33,9c0-21.35,0-42.96,0-64.84c-6.52,2.37-12.01,6.56-16.47,12.61
							c-4.46,6.06-7.55,12.81-9.25,20.09c-1.7,7.28-2.2,14.82-1.49,22.45c0.71,7.63,2.58,14.32,5.63,19.98
							c3.05,5.67,7.51,9.85,13.39,12.49c5.88,2.66,12.71,2.97,20.51,1.13c4.25-1,7.9-3.44,10.94-7.22
							c3.05-3.78,4.57-7.88,4.57-12.38c0-4.36-1.52-7.79-4.57-10.41C568.47,340.85,564.82,339.85,560.57,340.55z"/>
						<path class="st1" d="M671.72,325.09c8.5-1.45,15.62-4.47,21.36-8.9c5.74-4.44,9.17-8.86,10.31-13.46
							c1.13-4.6-0.36-8.8-4.46-12.81c-4.11-4-10.77-6.44-19.98-7.32c-0.28,0.59-0.57,1.18-0.85,1.77
							c8.21,3.31,12.4,8.14,12.54,14.91c0.28,14.25-14.67,22.95-44.84,27.33c-0.99,0.15-1.63,0.24-1.91,0.29c0-16.56,0-32.76,0-48.6
							c34.85-0.31,69.71-0.54,104.56-0.55c0,12.54,0,25.78,0,39.75c-8.15,0.02-16.29,0.24-24.44,0.64
							c0.07,20.02,0.14,41.43,0.21,64.21c-17.43,1.65-34.85,4.89-52.28,9.1C671.86,368.38,671.79,346.27,671.72,325.09z"/>
					</g>
					<g>
						<path class="st1" d="M524.23,685.6c24.02-6.68,48.03-14.71,72.05-22.55c0.07,19.08,0.14,38.22,0.21,57.43
							c-0.57,0.27-1.42,0.57-2.55,0.89c-1.14,0.32-3.26,0.83-6.38,1.51c-3.12,0.69-6.13,1.14-9.03,1.37
							c-2.91,0.23-6.13,0.15-9.67-0.21c-3.55-0.36-6.59-1.18-9.14-2.46c-2.55-1.28-4.71-3.35-6.48-6.23
							c-1.77-2.87-2.65-6.46-2.65-10.82c-0.14-5.11,0.92-9.51,3.19-13.24c2.26-3.73,5.53-7.33,9.77-10.83
							c-0.14-0.71-0.28-1.41-0.43-2.12c-8.78,2.34-16.4,6.2-22.85,11.38c-6.45,5.19-9.74,11.34-9.88,18.63
							c-0.14,3.47,0.6,6.49,2.23,9.09c1.63,2.61,4.32,4.82,8.07,6.68c3.75,1.86,6.84,3.27,9.25,4.18c2.41,0.92,6.27,2.08,11.58,3.58
							c5.31,1.5,8.47,2.49,9.46,2.83c19.98,6.56,28.55,20.05,25.72,37.71c-1.42,9.16-5.21,16.92-11.37,22.93
							c-6.16,6.04-15.06,8.79-26.67,8.78c-26.57,0.02-53.13,0.03-79.7,0.04c-0.07-14.08-0.14-28.82-0.21-44.22
							c0.71-0.17,1.63-0.34,2.76-0.51c1.13-0.17,3.36-0.41,6.7-0.77c3.33-0.36,6.51-0.56,9.56-0.58c3.04-0.02,6.41,0.28,10.09,0.92
							c3.69,0.64,6.87,1.64,9.56,3.02c2.69,1.38,4.99,3.53,6.91,6.48c1.91,2.95,2.87,6.54,2.87,10.69
							c0.14,8.67-4.04,15.11-12.54,18.95c0.21,0.61,0.43,1.22,0.64,1.83c9.35-0.35,16.61-1.87,21.78-4.75
							c5.17-2.86,7.9-8.17,8.18-15.84c-0.43-5.84-2.48-10.83-6.16-14.78c-3.69-3.95-8.15-6.74-13.39-8.42
							c-5.24-1.68-10.87-3.39-16.9-5.17c-6.02-1.77-11.55-3.5-16.58-5.21c-5.03-1.72-9.14-4.44-12.33-8.18
							c-3.19-3.74-4.64-8.42-4.36-14.15c0.28-4.57,1.45-8.71,3.51-12.45c2.05-3.73,4.57-6.83,7.55-9.29
							c2.98-2.46,6.73-4.73,11.26-6.86c4.53-2.13,8.74-3.88,12.64-5.18C514.42,688.42,518.99,687.06,524.23,685.6z"/>
						<path class="st1" d="M606.48,804.12c0-48.87,0-96.99,0-144.39c18.49-5.97,36.98-11.7,55.47-16.47c0,50.93,0,104.54,0,160.82
							C643.46,804.09,624.97,804.11,606.48,804.12z"/>
						<path class="st1" d="M727.2,716.09c0,28.43,0,57.85,0,88.25c-17.64,0-35.28,0-52.92,0c0-57.66,0-112.28,0-163.87
							c17.64-4.11,35.28-7.21,52.92-8.68c0,18.75,0,38,0,57.75c0.92-0.06,1.84-0.11,2.76-0.16c0.14-7.98,0.85-15.36,2.13-22.16
							c1.28-6.79,3.22-13.15,5.84-19.04c2.62-5.89,6.37-10.46,11.26-13.62c4.89-3.15,10.59-4.49,17.11-3.86
							c7.5,0.71,13.81,3.22,18.91,7.23c5.1,4.01,8.89,9.31,11.37,15.72c2.48,6.42,4.21,12.97,5.21,19.64
							c0.99,6.67,1.49,14.43,1.49,23.36c0,34.54,0,70.44,0,107.69c-17.29,0-34.57,0-51.86,0c0-30.43,0-59.85,0-88.27
							c0-4.81-0.82-8.8-2.44-11.97c-1.63-3.17-3.65-5.13-6.06-5.88c-2.41-0.75-4.82-0.72-7.23,0.06c-2.41,0.79-4.43,2.81-6.06,6.05
							C728.01,707.57,727.2,711.48,727.2,716.09z"/>
					</g>
					<g>
						<path class="st1" d="M351.05,579.98c-11.62-5.25-21.93-14.58-30.92-27.22c-9-12.7-13.5-25.57-13.5-36.98
							c0-14.03,0-28.05,0-42.08c17,13.51,34.01,23.33,51.01,30.14c0.07,17.47,0.14,34.56,0.21,51.29c-3.4-1.58-6.31-1.86-8.71-0.75
							c-2.41,1.11-3.54,3.29-3.4,6.64c0.14,5.04,2.26,9.51,6.38,13.14c4.11,3.62,8.29,5.32,12.54,5.08
							c7.08,0.26,12.36-1.86,15.83-5.78c3.47-3.94,5.21-10.31,5.21-19.07c0-13.66,0-27.64,0-41.93c17.29,3.76,34.57,4.79,51.86,3.79
							c0,15.24,0,30.09,0,44.56c0,5.99-1.35,11.28-4.04,15.84c-2.69,4.56-5.95,8.23-9.78,10.95c-3.82,2.73-7.65,5.29-11.48,7.67
							c-3.82,2.39-7.09,5.34-9.77,8.94c-2.69,3.59-4.04,7.94-4.04,13.09c0,12,0,23.71,0,35.12c-17.71-2.49-35.42-7.64-53.13-16.19
							c0-14.61,0-29.49,0-44.63C345.32,585.73,347.23,581.93,351.05,579.98z"/>
						<path class="st1" d="M513.21,497.69c19.84-6.21,36.8-5.25,50.9,3.39c14.1,8.6,21.15,22.47,21.15,42.33
							c0,19.81-7.05,39.91-21.15,59.5c-14.1,19.56-31.07,32.63-50.9,38.77c-19.98,6.13-37.02,3.54-51.11-7.37
							c-14.1-10.98-21.15-26.9-21.15-46.61c0-19.83,7.05-37.77,21.15-54.98C476.2,515.45,493.24,503.9,513.21,497.69z M509.6,561.23
							c-5.24,1.71-9.35,5.1-12.33,10.23c0-19.61,0-39.77,0-60.5c-6.52,3.91-12.01,9-16.47,15.34c-4.46,6.35-7.55,12.83-9.25,19.51
							c-1.7,6.68-2.2,13.35-1.49,19.98c0.71,6.64,2.58,12.35,5.63,17.1c3.05,4.76,7.51,8.16,13.39,10.06
							c5.88,1.91,12.72,1.65,20.51-0.87c4.25-1.38,7.9-4.08,10.94-8.09c3.05-4.01,4.57-8.21,4.57-12.58c0-4.23-1.52-7.32-4.57-9.31
							C517.5,560.13,513.85,559.84,509.6,561.23z"/>
						<path class="st1" d="M670.06,509.89c0-22.78,0-44.85,0-66.21c17.64-5.18,35.28-9.19,52.92-11.28c0,42.2,0,88.41,0,138.63
							c-17.64,2.07-35.28,6.03-52.92,11.15c0-17.14,0-33.93,0-50.36c-0.92,0.29-1.84,0.58-2.76,0.87
							c-0.14,6.7-0.85,13.13-2.13,19.26c-1.28,6.13-3.26,12.2-5.95,18.18c-2.69,5.99-6.45,11.24-11.26,15.77
							c-4.82,4.54-10.56,7.89-17.21,10.17c-7.51,2.59-13.78,3.43-18.81,2.48c-5.03-0.95-8.82-3.46-11.37-7.58
							c-2.55-4.12-4.32-8.77-5.31-13.98c-0.99-5.21-1.49-11.5-1.49-18.88c0-29.09,0-58.09,0-86.98
							c17.36-6.88,34.71-13.68,52.07-19.67c0,21.65,0,43.82,0,66.52c0,3.83,0.81,6.73,2.45,8.71c1.63,1.98,3.65,2.87,6.06,2.67
							c2.41-0.2,4.82-0.98,7.23-2.36c2.41-1.37,4.43-3.61,6.06-6.71C669.24,517.19,670.06,513.72,670.06,509.89z"/>
						<path class="st1" d="M735.52,569.65c0-50.32,0-96.52,0-138.6c31.81-2.06,63.62,2.68,95.43,18.6
							c11.19,5.61,20.05,14.54,26.57,25.73c6.51,11.21,9.99,22.05,10.41,31.44c0.28,8.47-1.35,14.21-4.89,17.44
							c-3.54,3.25-8.15,4.12-13.82,3.01c-5.67-1.11-12.04-3.14-19.13-5.81c-7.09-2.67-13.96-6.16-20.62-10.65
							c-0.35,0.58-0.71,1.16-1.06,1.75c4.82,5.76,10.73,10.7,17.75,15.25c7.01,4.55,13.78,8.36,20.3,11.36
							c6.51,3,12.54,5.51,18.07,7.33c0,19.85,0,39.75,0,59.7c-6.38-2.15-12.9-5.06-19.55-8.82c-6.66-3.76-12.75-7.89-18.28-12.71
							c-5.53-4.81-9.99-10.73-13.39-18.02c-3.4-7.27-4.96-15.19-4.68-23.77c0.14-3.77-0.11-7.59-0.74-11.46
							c-0.64-3.86-1.67-7.74-3.08-11.61c-1.42-3.86-3.61-7.32-6.59-10.27c-2.97-2.95-6.45-4.91-10.41-5.81c0,22.24,0,45.36,0,69.35
							C770.37,569.43,752.95,568.53,735.52,569.65z M775.05,448.66c0,3.33,1.24,6.34,3.72,9.1c2.48,2.77,5.49,4.5,9.03,5.28
							c0,11.39,0,23.03,0,34.93c7.37,1.1,13.25-0.33,17.64-4.71c4.39-4.37,6.73-9.8,7.01-16.59c0.28-6.76-1.45-13.91-5.21-21.19
							c-3.76-7.27-9.25-12.54-16.47-15.4c-3.97-1.57-7.58-1.48-10.84,0.21C776.68,441.99,775.05,444.81,775.05,448.66z"/>
					</g>
				</g>
			</g>
		</g>
	</g>
</svg>
